HIERARCHY
ROOT Hips
{
	OFFSET 0.000000 0.000000 0.000000
	CHANNELS 6 Xposition Yposition Zposition Zrotation Yrotation Xrotation 
	JOINT LHipJoint
	{
		OFFSET 0.000000 0.000000 0.000000
		CHANNELS 3 Zrotation Yrotation Xrotation
		JOINT LeftUpLeg
		{
			OFFSET 1.363060 -1.794630 0.839290
			CHANNELS 3 Zrotation Yrotation Xrotation
			JOINT LeftLeg
			{
				OFFSET 2.448110 -6.726130 0.000000
				CHANNELS 3 Zrotation Yrotation Xrotation
				JOINT LeftFoot
				{
					OFFSET 2.562200 -7.039590 0.000000
					CHANNELS 3 Zrotation Yrotation Xrotation
					JOINT LeftToeBase
					{
						OFFSET 0.157640 -0.433110 2.322550
						CHANNELS 3 Zrotation Yrotation Xrotation
						End Site
						{
							OFFSET 0.000000 0.000000 0.000000
						}
					}
				}
			}
		}
	}
	JOINT RHipJoint
	{
		OFFSET 0.000000 0.000000 0.000000
		CHANNELS 3 Zrotation Yrotation Xrotation
		JOINT RightUpLeg
		{
			OFFSET -1.305520 -1.794630 0.839290
			CHANNELS 3 Zrotation Yrotation Xrotation
			JOINT RightLeg
			{
				OFFSET -2.542530 -6.985550 0.000000
				CHANNELS 3 Zrotation Yrotation Xrotation
				JOINT RightFoot
				{
					OFFSET -2.568260 -7.056230 0.000000
					CHANNELS 3 Zrotation Yrotation Xrotation
					JOINT RightToeBase
					{
						OFFSET -0.164730 -0.452590 2.363150
						CHANNELS 3 Zrotation Yrotation Xrotation
						End Site
						{
							OFFSET 0.000000 0.000000 0.000000
						}
					}
				}
			}
		}
	}
}
MOTION
Frames: 17
Frame Time: 0.008333
4.899715 16.993144 4.313645 2.080313 14.822768 11.027737 -12.300651 4.572163 -1.740009 -3.595043 19.705383 -2.076995 -0.300656 1.768767 29.974048 1.833834 11.434516 19.091792 4.388700 0.000000 -83.324200 7.500041 -1.296052 2.659476 19.268858 -1.950713 -24.459467 3.044228 2.558579 -4.585946 -2.350801 -15.056875 -2.560269 -3.743800 -0.000000 -19.225800
4.930231 17.012051 4.449055 1.765180 14.398253 10.883783 -12.463603 4.481343 -1.732357 -3.079943 19.664819 -2.971512 -0.167532 1.853400 32.041253 1.955418 11.453469 21.086886 4.633499 0.000000 -81.029800 7.374195 -1.377961 2.620167 19.640367 -1.798961 -23.833513 3.112537 2.519599 -4.341420 -2.234013 -14.799285 -2.394109 -3.772500 -0.000000 -18.501300
4.956195 17.029678 4.582786 1.488940 13.968868 10.760247 -12.591330 4.374926 -1.732697 -2.650428 19.593068 -3.937029 -0.059559 1.932909 34.183839 2.081679 11.557825 22.831015 4.883700 0.000001 -77.855800 7.265865 -1.441781 2.583348 19.972704 -1.644552 -23.195023 3.172468 2.492931 -4.114271 -2.136275 -14.504947 -2.460024 -3.718500 0.000000 -17.384000
4.977702 17.045765 4.714812 1.258377 13.545328 10.661040 -12.681844 4.258442 -1.738594 -2.318406 19.479467 -4.970917 0.024893 2.012380 36.383424 2.206295 11.794465 24.207025 5.156800 0.000000 -73.853001 7.177416 -1.488944 2.549189 20.259186 -1.496864 -22.569574 3.223101 2.474710 -3.881865 -2.050510 -14.182616 -2.740235 -3.600600 0.000000 -16.016400
4.995216 17.060229 4.844961 1.069766 13.135745 10.580519 -12.738952 4.136363 -1.748726 -2.076178 19.319499 -6.062233 0.091376 2.096823 38.614669 2.325343 12.202180 25.137141 5.469400 0.000000 -69.323200 7.106842 -1.522647 2.513500 20.506882 -1.370366 -21.975072 3.265519 2.459508 -3.615026 -1.967357 -13.839696 -3.206553 -3.440300 -0.000000 -14.523200
5.009225 17.073148 4.973207 0.921992 12.745126 10.517374 -12.766282 4.013040 -1.759927 -1.921789 19.105554 -7.203942 0.146823 2.189546 40.851038 2.437279 12.805266 25.578760 5.829200 0.000000 -64.579200 7.053928 -1.546128 2.473424 20.718670 -1.279987 -21.429488 3.300637 2.442645 -3.296779 -1.879666 -13.481202 -3.811956 -3.259000 0.000000 -13.056200
5.020195 17.084770 5.099560 0.813459 12.374530 10.470886 -12.767961 3.891150 -1.767127 -1.855030 18.823765 -8.385275 0.198213 2.290501 43.055880 2.544714 13.620791 25.546690 6.241299 0.000000 -60.132800 7.018762 -1.562367 2.425950 20.896128 -1.239983 -20.944428 3.329556 2.420393 -2.920884 -1.782516 -13.109163 -4.499722 -3.075500 -0.000000 -11.758800
5.028663 17.095414 5.224011 0.741278 12.021484 10.439990 -12.748597 3.772841 -1.767368 -1.870137 18.470573 -9.598892 0.250039 2.399216 45.206412 2.647973 14.617047 25.049456 6.674800 -0.000001 -56.035400 7.000904 -1.574224 2.369649 21.041009 -1.258428 -20.524287 3.353407 2.390383 -2.490580 -1.673585 -12.725164 -5.212655 -2.904300 0.000000 -10.737100
5.035084 17.105489 5.346620 0.702974 11.679923 10.424709 -12.712152 3.658625 -1.756808 -1.963146 18.038908 -10.833323 0.304988 2.512265 47.269132 2.750142 15.761043 24.144301 7.101400 -0.000001 -52.562900 7.000074 -1.583524 2.304191 21.152451 -1.337152 -20.166139 3.373011 2.352003 -2.019489 -1.553632 -12.329583 -5.898523 -2.754800 -0.000000 -10.049900
5.039818 17.115364 5.467460 0.695898 11.341506 10.424782 -12.662042 3.548405 -1.733210 -2.126932 17.527647 -12.076903 0.363340 2.625738 49.213875 2.852362 16.995234 22.892833 7.479300 0.000000 -49.734400 7.015642 -1.591319 2.230743 21.228497 -1.470325 -19.860402 3.388805 2.306185 -1.528382 -1.425933 -11.923513 -6.515512 -2.630699 0.000000 -9.707400
5.043253 17.125347 5.586552 0.715856 10.996570 10.438906 -12.601191 3.442129 -1.697412 -2.349369 16.947149 -13.319746 0.423444 2.736852 51.020065 2.952178 18.239165 21.332826 7.752300 0.000000 -47.296600 7.046321 -1.598146 2.151777 21.267910 -1.644954 -19.590455 3.401032 2.255084 -1.042161 -1.295337 -11.509031 -7.034849 -2.531200 -0.000000 -9.674600
5.045558 17.135703 5.704022 0.761439 10.635249 10.469086 -12.531061 3.338313 -1.646772 -2.624077 16.295622 -14.549071 0.482923 2.839691 52.651503 3.050869 19.445168 19.577952 7.905900 -0.000000 -45.465000 7.091147 -1.603397 2.071784 21.266671 -1.840261 -19.340626 3.409191 2.202103 -0.587898 -1.168596 -11.091392 -7.442475 -2.451800 -0.000000 -9.883500
5.046890 17.146587 5.819804 0.828707 10.247972 10.510099 -12.452885 3.236168 -1.584347 -2.935810 15.586581 -15.747568 0.538543 2.931480 54.086732 3.144500 20.545956 17.692153 7.914600 0.000000 -44.075100 7.148844 -1.606094 1.991783 21.223683 -2.040397 -19.086242 3.413114 2.150068 -0.188631 -1.051074 -10.671175 -7.736352 -2.385300 0.000000 -10.258100
5.047316 17.158012 5.934025 0.916092 9.827824 10.563431 -12.366925 3.135323 -1.510763 -3.275122 14.831412 -16.911168 0.587075 3.009622 55.312444 3.228184 21.485681 15.728795 7.767201 -0.000000 -42.833700 7.217910 -1.605574 1.918059 21.136819 -2.219741 -18.813706 3.412059 2.102509 0.135951 -0.948313 -10.256283 -7.926828 -2.324800 0.000000 -10.715700
5.046845 17.169935 6.046686 1.021002 9.369083 10.624629 -12.273098 3.034404 -1.427519 -3.630312 14.035361 -18.021737 0.625965 3.070959 56.306055 3.300287 22.245493 13.788527 7.493500 0.000000 -41.923600 7.297271 -1.600317 1.850366 21.006359 -2.365252 -18.504758 3.405675 2.061336 0.375479 -0.863289 -9.847966 -8.031395 -2.263200 0.000000 -11.182799
5.045481 17.182223 6.157834 1.141438 8.869299 10.691355 -12.171186 2.933132 -1.336338 -3.992028 13.209058 -19.072960 0.653159 3.114479 57.062518 3.357099 22.806451 11.916427 7.115300 -0.000000 -41.215400 7.385583 -1.589716 1.790879 20.833660 -2.463159 -18.151082 3.393583 2.027842 0.527461 -0.797360 -9.450279 -8.072520 -2.195900 0.000000 -11.605200
5.043182 17.194646 6.267487 1.275473 8.328249 10.760664 -12.060999 2.831230 -1.238699 -4.351750 12.360041 -20.058626 0.667399 3.139783 57.580786 3.396661 23.169264 10.148330 6.662800 0.000000 -40.600600 7.481596 -1.573410 1.739932 20.621738 -2.506498 -17.749194 3.375644 2.002131 0.597525 -0.749753 -9.065512 -8.073492 -2.120200 0.000000 -11.950200
